<svg width="115" height="49" viewBox="0 0 115 49" fill="none" xmlns="http://www.w3.org/2000/svg">
<path d="M29.5326 20.8037C29.8835 28.6264 25.0857 33.9224 17.7331 33.9224C10.3804 33.9224 5.16406 28.6264 5.16406 21.2602C5.16406 13.8939 10.3804 8.59796 17.7331 8.59796C21.1641 8.59796 24.035 10 26.1364 11.9306C26.871 12.5967 27.0127 13.5445 26.4524 14.1057C25.9271 14.7369 24.9811 14.7019 24.1418 14.0359C22.3565 12.6338 20.3947 11.5812 17.7701 11.5812C12.3445 11.5812 8.49269 15.5799 8.49269 21.2624C8.49269 26.9449 12.3445 30.8737 17.7701 30.8737C22.8819 30.8737 26.4524 27.4013 26.4873 22.2801H19.5903C18.7859 22.2801 18.2257 21.6839 18.2257 20.9479C18.2257 20.2119 18.7859 19.6157 19.5903 19.6157H28.2726C29.0421 19.6157 29.5326 20.1071 29.5326 20.8081V20.8037Z" fill="white"/>
<path d="M33.84 32.0268V15.5755C33.84 14.7347 34.4002 14.1385 35.2045 14.1385C36.0808 14.1385 36.7108 14.6998 36.7108 15.5056L36.7806 19.3296C37.6918 16.7002 40.1419 14.1036 43.0825 14.1036C44.0983 14.1036 44.7981 14.7347 44.7981 15.5777C44.7981 16.4906 44.1332 17.1217 42.943 17.1916C39.5468 17.4013 36.992 20.2774 36.992 24.7675V32.029C36.992 32.9768 36.3272 33.6429 35.416 33.6429C34.5048 33.6429 33.84 32.9768 33.84 32.029V32.0268Z" fill="white"/>
<path d="M60.554 32.2037L60.4842 31.5725C59.1196 32.9768 56.9834 33.8176 54.4613 33.8176C49.7005 33.8176 46.4089 31.0811 46.4089 27.2222C46.4089 23.3633 49.7005 20.4871 54.4613 20.4871C56.9114 20.4871 58.9779 21.2929 60.3774 22.6273V22.4176C60.3774 18.384 58.2063 16.4207 54.531 16.4207C52.4297 16.4207 50.5049 17.0867 49.21 17.7528C48.5103 18.1394 47.8106 17.9974 47.4596 17.4362C47.1435 16.8749 47.4247 16.1739 48.1245 15.7524C49.9446 14.6648 52.2204 13.8589 55.0564 13.8589C60.3076 13.8589 63.5643 16.5255 63.5643 22.4176V31.9591C63.5643 32.9418 63.0041 33.6778 62.13 33.6778C61.3256 33.7127 60.6237 33.1515 60.554 32.2037ZM55.0215 31.5725C58.2782 31.5725 60.4842 29.7839 60.4842 27.1523C60.4842 24.5207 58.2782 22.6622 55.0215 22.6622C51.7648 22.6622 49.4891 24.5207 49.4891 27.1523C49.4891 29.7839 51.7648 31.5725 55.0215 31.5725Z" fill="white"/>
<path d="M68.5039 32.0617V15.7153C68.5039 14.7675 69.1339 14.1014 70.0799 14.1014C71.026 14.1014 71.6211 14.7675 71.6211 15.7153V17.6786C72.9508 15.2938 75.3682 13.9245 78.4135 13.9245C83.1045 13.9245 85.9405 17.1872 85.9056 22.7278V32.0574C85.9056 33.0052 85.2756 33.6713 84.3296 33.6713C83.3835 33.6713 82.7884 33.0052 82.7884 32.0574V22.9025C82.8233 19.1134 80.6173 16.5539 77.2909 16.5539C73.9644 16.5539 71.6189 19.1134 71.6189 22.9025V32.0574C71.6189 33.0052 70.9889 33.6713 70.0777 33.6713C69.1666 33.6713 68.5017 33.0052 68.5017 32.0574L68.5039 32.0617Z" fill="white"/>
<path d="M89.6854 14.2433H91.3661V10.9457C91.3661 10.0328 91.9961 9.3667 92.9072 9.3667C93.8184 9.3667 94.4833 10.0328 94.4833 10.9457V14.2433H98.1607C98.8953 14.2433 99.4206 14.7347 99.4206 15.4707C99.4206 16.2067 98.8953 16.698 98.1607 16.698H94.4833V27.362C94.4833 29.7468 95.2528 30.7994 96.8985 30.7994C97.668 30.7994 98.1934 30.5548 98.7187 30.5548C99.5253 30.5548 100.014 31.0113 100.014 31.887C100.014 32.8698 98.7536 33.6407 96.5127 33.6407C92.9072 33.6407 91.3661 31.5005 91.3661 27.6786V16.7002H89.6854C88.9508 16.7002 88.4255 16.1739 88.4255 15.4729C88.4255 14.7369 88.9508 14.2455 89.6854 14.2455V14.2433Z" fill="white"/>
<path d="M103.691 32.0617V15.7153C103.691 14.7675 104.321 14.1014 105.267 14.1014C106.213 14.1014 106.808 14.7675 106.808 15.7153V32.0617C106.808 33.0095 106.213 33.6756 105.267 33.6756C104.321 33.6756 103.691 33.0095 103.691 32.0617Z" fill="white"/>
<path d="M49.4847 43.0576L49.476 43.6844C49.476 43.9879 49.2907 44.2041 49.0357 44.2041C48.7806 44.2041 48.6346 43.9989 48.6346 43.7149V37.2048C48.6346 36.9405 48.8112 36.7549 49.0749 36.7549C49.3387 36.7549 49.5065 36.9405 49.5065 37.2048V39.8123C49.9272 39.096 50.6509 38.6745 51.5512 38.6745C52.9899 38.6745 54.0471 39.8713 54.0471 41.4481C54.0471 43.0248 52.9899 44.2238 51.5512 44.2238C50.6422 44.2238 49.9076 43.7936 49.4869 43.0576H49.4847ZM51.3725 43.4594C52.4101 43.4594 53.1621 42.6055 53.1621 41.4503C53.1621 40.295 52.4079 39.4411 51.3725 39.4411C50.337 39.4411 49.5043 40.295 49.5043 41.4503C49.5043 42.6055 50.3065 43.4594 51.3725 43.4594Z" fill="white"/>
<path d="M54.566 45.9294C54.6139 45.7328 54.7905 45.6062 55.0542 45.6455C55.6014 45.7328 55.9632 45.5668 56.2379 44.7239L56.4341 44.1255L54.6335 39.3406C54.5158 39.0261 54.6139 38.7618 54.8493 38.6745C55.1044 38.5871 55.3289 38.7138 55.4357 38.989L56.8439 42.8916L58.1845 39.0479C58.2826 38.764 58.5071 38.6177 58.7513 38.6854C59.0063 38.7531 59.1131 39.0086 59.0063 39.3231L57.0292 44.8331C56.5692 46.1368 56.0504 46.5299 55.0521 46.4404C54.6902 46.4208 54.4853 46.2155 54.5638 45.9316L54.566 45.9294Z" fill="white"/>
<path d="M63.0717 43.715V37.7442C63.0717 37.4799 63.257 37.2834 63.5426 37.2834H67.1524C67.3769 37.2834 67.5448 37.4406 67.5448 37.6743C67.5448 37.908 67.3791 38.0674 67.1524 38.0674H63.9916V40.2928H66.7317C66.9758 40.2928 67.1415 40.4588 67.1415 40.675C67.1415 40.8912 66.9758 41.0768 66.7317 41.0768H63.9916V43.715C63.9916 43.9989 63.8063 44.1845 63.5317 44.1845C63.257 44.1845 63.0717 43.9989 63.0717 43.715Z" fill="white"/>
<path d="M68.3774 43.7237V39.1266C68.3774 38.8907 68.5344 38.7247 68.7589 38.7247C69.0031 38.7247 69.1796 38.882 69.1796 39.1069L69.1992 40.1748C69.4543 39.4389 70.1388 38.7138 70.9606 38.7138C71.2439 38.7138 71.4401 38.8907 71.4401 39.1244C71.4401 39.3799 71.2548 39.5546 70.9213 39.5743C69.9709 39.6332 69.2581 40.4369 69.2581 41.6926V43.7215C69.2581 43.9857 69.0728 44.1714 68.8178 44.1714C68.5627 44.1714 68.3774 43.9857 68.3774 43.7215V43.7237Z" fill="white"/>
<path d="M74.3481 38.6548C76.0113 38.6548 76.9617 39.9979 76.9617 41.3891C76.9617 41.6446 76.796 41.8106 76.5214 41.8106H72.5083C72.6456 42.7911 73.3693 43.4681 74.3372 43.4681C74.856 43.4681 75.2963 43.2716 75.6581 42.92C75.8543 42.7431 76.1094 42.7234 76.2641 42.8916C76.4015 43.0488 76.3906 43.2934 76.2053 43.49C75.7453 43.9792 75.1197 44.2456 74.3459 44.2456C72.7895 44.2456 71.6647 43.0401 71.6647 41.4524C71.6647 39.8647 72.7895 38.6592 74.3459 38.6592L74.3481 38.6548ZM76.1486 41.1357C76.0505 40.2535 75.4445 39.4389 74.3393 39.4389C73.3519 39.4389 72.626 40.1246 72.4996 41.1357H76.1486Z" fill="white"/>
<path d="M80.3862 38.6548C82.0494 38.6548 82.9999 39.9979 82.9999 41.3891C82.9999 41.6446 82.8342 41.8106 82.5595 41.8106H78.5486C78.6859 42.7911 79.4097 43.4681 80.3775 43.4681C80.8963 43.4681 81.3366 43.2716 81.6985 42.92C81.8947 42.7431 82.1475 42.7234 82.3045 42.8916C82.4418 43.0488 82.4309 43.2934 82.2456 43.49C81.7857 43.9792 81.1601 44.2456 80.3862 44.2456C78.8298 44.2456 77.705 43.0401 77.705 41.4524C77.705 39.8647 78.8298 38.6592 80.3862 38.6592V38.6548ZM82.1868 41.1357C82.0887 40.2535 81.4827 39.4389 80.3775 39.4389C79.3879 39.4389 78.6642 40.1246 78.5377 41.1357H82.1868Z" fill="white"/>
<path d="M84.0789 43.7237V37.7726C84.0789 37.5083 84.2053 37.3118 84.4124 37.2528C84.6369 37.1851 84.8615 37.2616 85.0293 37.4974L87.6626 41.1838L90.2936 37.4974C90.4593 37.2616 90.6947 37.1829 90.9193 37.2528C91.1351 37.3205 91.2419 37.5083 91.2419 37.7726V43.7237C91.2419 43.9989 91.0653 44.1845 90.8015 44.1845C90.5378 44.1845 90.3503 43.9989 90.3503 43.7237V38.9104L87.9917 42.195C87.7955 42.4789 87.5231 42.4789 87.3269 42.2037L84.9683 38.9104V43.7237C84.9683 43.9989 84.7917 44.1845 84.5279 44.1845C84.2642 44.1845 84.0767 43.9989 84.0767 43.7237H84.0789Z" fill="white"/>
<path d="M93.2996 36.733C93.6223 36.733 93.8664 36.9885 93.8664 37.3008C93.8664 37.635 93.6223 37.8796 93.2996 37.8796C92.977 37.8796 92.722 37.635 92.722 37.3008C92.722 36.9864 92.977 36.733 93.2996 36.733ZM92.8593 43.7324V39.1637C92.8593 38.8995 93.0359 38.7138 93.2996 38.7138C93.5634 38.7138 93.7291 38.8995 93.7291 39.1637V43.7324C93.7291 43.9967 93.5634 44.1823 93.2996 44.1823C93.0359 44.1823 92.8593 43.9967 92.8593 43.7324Z" fill="white"/>
<path d="M95.2571 43.7346V39.1659C95.2571 38.9016 95.4337 38.716 95.6975 38.716C95.9612 38.716 96.1269 38.9016 96.1269 39.1659V39.714C96.4997 39.048 97.1732 38.6658 98.0255 38.6658C99.3378 38.6658 100.129 39.5765 100.12 41.127V43.7346C100.12 43.9988 99.9438 44.1845 99.6801 44.1845C99.4163 44.1845 99.2506 43.9988 99.2506 43.7346V41.1751C99.2593 40.1159 98.6446 39.4017 97.7138 39.4017C96.783 39.4017 96.1291 40.1181 96.1291 41.1751V43.7346C96.1291 43.9988 95.9525 44.1845 95.6996 44.1845C95.4468 44.1845 95.2593 43.9988 95.2593 43.7346H95.2571Z" fill="white"/>
<path d="M101.121 41.4503C101.121 39.8713 102.178 38.6767 103.617 38.6767C104.517 38.6767 105.241 39.0982 105.662 39.8145V37.207C105.662 36.9427 105.838 36.7571 106.093 36.7571C106.348 36.7571 106.533 36.9427 106.533 37.207V43.7171C106.533 44.0011 106.377 44.2063 106.132 44.2063C105.888 44.2063 105.692 43.9901 105.692 43.6866L105.683 43.0598C105.263 43.7958 104.528 44.226 103.619 44.226C102.18 44.226 101.123 43.0292 101.123 41.4503H101.121ZM103.791 43.4594C104.857 43.4594 105.659 42.6055 105.659 41.4503C105.659 40.295 104.857 39.4411 103.791 39.4411C102.725 39.4411 102.002 40.295 102.002 41.4503C102.002 42.6055 102.756 43.4594 103.791 43.4594Z" fill="white"/>
<path d="M107.423 9.83841C107.523 10.0262 107.571 10.2512 107.549 10.5111C107.48 11.3431 106.577 12.0201 105.378 12.0201C104.179 12.0201 103.268 11.3431 103.207 10.5111C103.187 10.2621 103.238 10.0437 103.336 9.86025C103.192 9.786 103.105 9.68991 103.105 9.57198C103.105 9.07186 104.654 9.00853 105.269 9.00635C105.306 9.00635 105.341 9.00635 105.378 9.00635C105.415 9.00635 105.45 9.00635 105.487 9.00635C106.119 9.01072 107.619 9.0806 107.619 9.57198C107.619 9.68117 107.545 9.76853 107.423 9.83841Z" fill="white"/>
<path d="M105.363 12.2648C104.099 12.2648 103.07 11.234 103.07 9.9673C103.07 9.46283 103.231 8.98455 103.534 8.58272C103.551 8.56088 103.599 8.50846 103.769 8.32502C103.876 8.20927 103.99 8.08916 104.016 8.05858C104.28 7.73973 104.596 7.60433 104.596 7.11514V5.78078C104.41 5.74584 104.269 5.58423 104.269 5.38768V5.34619C104.269 5.12561 104.447 4.94653 104.668 4.94653H106.056C106.276 4.94653 106.455 5.12561 106.455 5.34619V5.38768C106.455 5.58423 106.313 5.74584 106.128 5.78078V7.11514C106.128 7.59996 106.438 7.72881 106.699 8.04548C106.719 8.0695 106.784 8.14157 106.863 8.22893C107.124 8.51938 107.255 8.66789 107.29 8.72467C107.53 9.09593 107.654 9.52616 107.654 9.9673C107.654 11.234 106.625 12.2648 105.361 12.2648H105.363ZM104.67 5.2894C104.641 5.2894 104.615 5.31343 104.615 5.344V5.3855C104.615 5.41607 104.639 5.44009 104.67 5.44009H104.77C104.866 5.44009 104.942 5.51653 104.942 5.61262V7.11296C104.942 7.70479 104.585 7.91226 104.282 8.27697C104.253 8.31191 104.136 8.43858 104.022 8.55869C103.922 8.6657 103.826 8.76835 103.806 8.79237C103.551 9.13087 103.414 9.53708 103.414 9.96512C103.414 11.0418 104.288 11.9175 105.363 11.9175C106.438 11.9175 107.312 11.0418 107.312 9.96512C107.312 9.58949 107.205 9.22478 107.002 8.9103C106.969 8.86225 106.734 8.60019 106.608 8.45823C106.523 8.36433 106.453 8.28789 106.433 8.26168C106.137 7.90134 105.786 7.69824 105.786 7.11077V5.61044C105.786 5.51435 105.862 5.43791 105.958 5.43791H106.058C106.087 5.43791 106.113 5.41389 106.113 5.38331V5.34182C106.113 5.31343 106.089 5.28722 106.058 5.28722H104.67V5.2894Z" fill="white" stroke="white" stroke-width="0.5" stroke-miterlimit="10"/>
</svg>
